<mxfile host="65bd71144e">
    <diagram id="_7ytWK2nrYiimBYbJ_MU" name="Page-1">
        <mxGraphModel dx="1929" dy="551" grid="1" gridSize="10" guides="1" tooltips="1" connect="1" arrows="1" fold="1" page="1" pageScale="1" pageWidth="827" pageHeight="1169" math="0" shadow="0">
            <root>
                <mxCell id="0"/>
                <mxCell id="1" parent="0"/>
                <mxCell id="6" style="edgeStyle=none;html=1;endArrow=open;endFill=0;entryX=0;entryY=0.5;entryDx=0;entryDy=0;entryPerimeter=0;fontFamily=source code pro;fontColor=#1A1A1A;" parent="1" source="2" target="3" edge="1">
                    <mxGeometry relative="1" as="geometry"/>
                </mxCell>
                <mxCell id="13" value="for dev in devs" style="edgeLabel;html=1;align=center;verticalAlign=middle;resizable=0;points=[];fontFamily=source code pro;fontColor=#1A1A1A;" parent="6" vertex="1" connectable="0">
                    <mxGeometry x="-0.3221" y="-1" relative="1" as="geometry">
                        <mxPoint x="16" y="-1" as="offset"/>
                    </mxGeometry>
                </mxCell>
                <mxCell id="2" value="clean previous sprint" style="ellipse;whiteSpace=wrap;html=1;aspect=fixed;fontFamily=source code pro;fontColor=#1A1A1A;" parent="1" vertex="1">
                    <mxGeometry x="200" y="320" width="80" height="80" as="geometry"/>
                </mxCell>
                <mxCell id="5" style="edgeStyle=none;html=1;exitX=0.5;exitY=0;exitDx=0;exitDy=0;endArrow=open;endFill=0;fontFamily=source code pro;fontColor=#1A1A1A;" parent="1" source="3" target="4" edge="1">
                    <mxGeometry relative="1" as="geometry"/>
                </mxCell>
                <mxCell id="11" style="edgeStyle=none;html=1;endArrow=open;endFill=0;fontFamily=source code pro;fontColor=#1A1A1A;" parent="1" source="3" target="8" edge="1">
                    <mxGeometry relative="1" as="geometry"/>
                </mxCell>
                <mxCell id="15" value="&lt;span style=&quot;font-size: 12px; background-color: rgb(251, 251, 251);&quot;&gt;S&lt;/span&gt;&lt;sup style=&quot;border-color: var(--border-color); background-color: rgb(251, 251, 251);&quot;&gt;*&lt;/sup&gt;&lt;sub style=&quot;border-color: var(--border-color); background-color: rgb(251, 251, 251);&quot;&gt;n&lt;/sub&gt;&lt;span style=&quot;font-size: 12px; background-color: rgb(251, 251, 251);&quot;&gt;&amp;nbsp;in S&lt;/span&gt;&lt;sub style=&quot;border-color: var(--border-color); background-color: rgb(251, 251, 251);&quot;&gt;n&lt;/sub&gt;" style="edgeLabel;html=1;align=center;verticalAlign=middle;resizable=0;points=[];fontFamily=source code pro;fontColor=#1A1A1A;" parent="11" vertex="1" connectable="0">
                    <mxGeometry x="0.382" y="-1" relative="1" as="geometry">
                        <mxPoint x="-33" y="-1" as="offset"/>
                    </mxGeometry>
                </mxCell>
                <mxCell id="3" value="move to next iteration?" style="rhombus;whiteSpace=wrap;html=1;fontFamily=source code pro;fontColor=#1A1A1A;" parent="1" vertex="1">
                    <mxGeometry x="440" y="320" width="80" height="80" as="geometry"/>
                </mxCell>
                <mxCell id="4" value="backlog" style="rounded=0;whiteSpace=wrap;html=1;fontFamily=source code pro;fontColor=#1A1A1A;" parent="1" vertex="1">
                    <mxGeometry x="420" y="180" width="120" height="60" as="geometry"/>
                </mxCell>
                <mxCell id="7" value="false" style="text;html=1;strokeColor=none;fillColor=none;align=center;verticalAlign=middle;whiteSpace=wrap;rounded=0;fontFamily=source code pro;fontColor=#1A1A1A;" parent="1" vertex="1">
                    <mxGeometry x="480" y="290" width="60" height="30" as="geometry"/>
                </mxCell>
                <mxCell id="8" value="iteration N+1&lt;br&gt;S&lt;sup&gt;*&lt;/sup&gt;&lt;sub&gt;n&lt;/sub&gt; &amp;nbsp;+ S&lt;sub style=&quot;border-color: var(--border-color);&quot;&gt;n+1&lt;/sub&gt;" style="rounded=0;whiteSpace=wrap;html=1;align=center;fontFamily=source code pro;fontColor=#1A1A1A;" parent="1" vertex="1">
                    <mxGeometry x="640" y="330" width="220" height="60" as="geometry"/>
                </mxCell>
                <mxCell id="10" style="edgeStyle=none;html=1;endArrow=open;endFill=0;fontFamily=source code pro;fontColor=#1A1A1A;" parent="1" source="9" target="2" edge="1">
                    <mxGeometry relative="1" as="geometry"/>
                </mxCell>
                <mxCell id="9" value="iteration N&lt;br&gt;S&lt;sub&gt;n&lt;/sub&gt; = { stories }" style="rounded=0;whiteSpace=wrap;html=1;fontFamily=source code pro;fontColor=#1A1A1A;" parent="1" vertex="1">
                    <mxGeometry x="-40" y="330" width="120" height="60" as="geometry"/>
                </mxCell>
                <mxCell id="12" value="true" style="text;html=1;strokeColor=none;fillColor=none;align=center;verticalAlign=middle;whiteSpace=wrap;rounded=0;fontFamily=source code pro;fontColor=#1A1A1A;" parent="1" vertex="1">
                    <mxGeometry x="510" y="370" width="60" height="30" as="geometry"/>
                </mxCell>
            </root>
        </mxGraphModel>
    </diagram>
</mxfile>